REM DIRINDEX 1\2\3,1\2\4,1\2\5,1\2\6
REM DIRNAME folder01,folder02,folder03,folder04,folder05,folder06
TITLE ""
FILE "051 051.mp3" MP3
  TRACK 01 AUDIO
    TITLE "0:"
    INDEX 01 00:00:00
  TRACK 02 AUDIO
    TITLE "3:cjc157_1940"
    INDEX 01 00:00:13
  TRACK 03 AUDIO
    TITLE "0:"
    INDEX 01 00:01:40
  TRACK 04 AUDIO
    TITLE "4:cjc157_1941"
    INDEX 01 00:02:10
  TRACK 05 AUDIO
    TITLE "0:"
    INDEX 01 00:04:44
  TRACK 06 AUDIO
    TITLE "5:cjc157_1942"
    INDEX 01 00:05:18
  TRACK 07 AUDIO
    TITLE "0:"
    INDEX 01 00:07:25
  TRACK 08 AUDIO
    TITLE "5:cjc157_1943"
    INDEX 01 00:07:70
  TRACK 09 AUDIO
    TITLE "0:"
    INDEX 01 00:09:63
  TRACK 10 AUDIO
    TITLE "3:cjc157_1944"
    INDEX 01 00:10:31
  TRACK 11 AUDIO
    TITLE "0:"
    INDEX 01 00:12:16
  TRACK 12 AUDIO
    TITLE "4:cjc157_1945"
    INDEX 01 00:12:65
  TRACK 13 AUDIO
    TITLE "0:"
    INDEX 01 00:14:07
  TRACK 14 AUDIO
    TITLE "5:cjc157_1946"
    INDEX 01 00:14:53
  TRACK 15 AUDIO
    TITLE "0:"
    INDEX 01 00:17:39
  TRACK 16 AUDIO
    TITLE "5:cjc157_1947"
    INDEX 01 00:18:07
  TRACK 17 AUDIO
    TITLE "0:"
    INDEX 01 00:19:73
  TRACK 18 AUDIO
    TITLE "3:cjc157_1948"
    INDEX 01 00:20:43
  TRACK 19 AUDIO
    TITLE "0:"
    INDEX 01 00:21:62
  TRACK 20 AUDIO
    TITLE "4:cjc157_1949"
    INDEX 01 00:22:32
  TRACK 21 AUDIO
    TITLE "0:"
    INDEX 01 00:23:42
  TRACK 22 AUDIO
    TITLE "5:cjc157_1950"
    INDEX 01 00:24:14
  TRACK 23 AUDIO
    TITLE "0:"
    INDEX 01 00:27:28
  TRACK 24 AUDIO
    TITLE "3:cjc157_1951"
    INDEX 01 00:27:71
  TRACK 25 AUDIO
    TITLE "0:"
    INDEX 01 00:29:09
  TRACK 26 AUDIO
    TITLE "4:cjc157_1952"
    INDEX 01 00:29:56
  TRACK 27 AUDIO
    TITLE "0:"
    INDEX 01 00:30:65
  TRACK 28 AUDIO
    TITLE "5:cjc157_1953"
    INDEX 01 00:31:37
  TRACK 29 AUDIO
    TITLE "0:"
    INDEX 01 00:33:13
  TRACK 30 AUDIO
    TITLE "5:cjc157_1954"
    INDEX 01 00:33:58
  TRACK 31 AUDIO
    TITLE "0:"
    INDEX 01 00:36:21
  TRACK 32 AUDIO
    TITLE "3:cjc157_1955"
    INDEX 01 00:36:66
  TRACK 33 AUDIO
    TITLE "0:"
    INDEX 01 00:38:06
  TRACK 34 AUDIO
    TITLE "4:cjc157_1956"
    INDEX 01 00:38:51
  TRACK 35 AUDIO
    TITLE "0:"
    INDEX 01 00:39:54
  TRACK 36 AUDIO
    TITLE "5:cjc157_1957"
    INDEX 01 00:40:24
  TRACK 37 AUDIO
    TITLE "0:"
    INDEX 01 00:43:52
  TRACK 38 AUDIO
    TITLE "5:cjc157_1958"
    INDEX 01 00:44:20
  TRACK 39 AUDIO
    TITLE "0:"
    INDEX 01 00:46:25
  TRACK 40 AUDIO
    TITLE "3:cjc157_1959"
    INDEX 01 00:46:72
  TRACK 41 AUDIO
    TITLE "0:"
    INDEX 01 00:48:42
  TRACK 42 AUDIO
    TITLE "4:cjc157_1960"
    INDEX 01 00:49:14
  TRACK 43 AUDIO
    TITLE "0:"
    INDEX 01 00:50:23
  TRACK 44 AUDIO
    TITLE "5:cjc157_1961"
    INDEX 01 00:50:70
  TRACK 45 AUDIO
    TITLE "0:"
    INDEX 01 00:52:71
  TRACK 46 AUDIO
    TITLE "3:cjc157_1962"
    INDEX 01 00:53:43
  TRACK 47 AUDIO
    TITLE "0:"
    INDEX 01 00:54:64
  TRACK 48 AUDIO
    TITLE "4:cjc157_1963"
    INDEX 01 00:55:34
  TRACK 49 AUDIO
    TITLE "0:"
    INDEX 01 00:56:39
  TRACK 50 AUDIO
    TITLE "5:cjc157_1964"
    INDEX 01 00:57:11
  TRACK 51 AUDIO
    TITLE "0:"
    INDEX 01 00:59:47
  TRACK 52 AUDIO
    TITLE "5:cjc157_1965"
    INDEX 01 01:00:15
  TRACK 53 AUDIO
    TITLE "0:"
    INDEX 01 01:02:05
  TRACK 54 AUDIO
    TITLE "3:cjc157_1966"
    INDEX 01 01:02:54
  TRACK 55 AUDIO
    TITLE "0:"
    INDEX 01 01:04:01
  TRACK 56 AUDIO
    TITLE "4:cjc157_1967"
    INDEX 01 01:04:48
  TRACK 57 AUDIO
    TITLE "0:"
    INDEX 01 01:05:68
  TRACK 58 AUDIO
    TITLE "5:cjc157_1968"
    INDEX 01 01:06:36
  TRACK 59 AUDIO
    TITLE "0:"
    INDEX 01 01:09:46
  TRACK 60 AUDIO
    TITLE "5:cjc157_1969"
    INDEX 01 01:10:12
  TRACK 61 AUDIO
    TITLE "0:"
    INDEX 01 01:14:00
  TRACK 62 AUDIO
    TITLE "3:cjc157_1970"
    INDEX 01 01:14:43
  TRACK 63 AUDIO
    TITLE "0:"
    INDEX 01 01:15:42
  TRACK 64 AUDIO
    TITLE "4:cjc157_1971"
    INDEX 01 01:16:14
  TRACK 65 AUDIO
    TITLE "0:"
    INDEX 01 01:17:33
  TRACK 66 AUDIO
    TITLE "5:cjc157_1972"
    INDEX 01 01:18:07
  TRACK 67 AUDIO
    TITLE "0:"
    INDEX 01 01:22:01
  TRACK 68 AUDIO
    TITLE "3:cjc157_1973"
    INDEX 01 01:22:42
  TRACK 69 AUDIO
    TITLE "0:"
    INDEX 01 01:24:22
  TRACK 70 AUDIO
    TITLE "4:cjc157_1974"
    INDEX 01 01:24:67
  TRACK 71 AUDIO
    TITLE "0:"
    INDEX 01 01:26:07
  TRACK 72 AUDIO
    TITLE "5:cjc157_1975"
    INDEX 01 01:26:48
  TRACK 73 AUDIO
    TITLE "0:"
    INDEX 01 01:29:37
  TRACK 74 AUDIO
    TITLE "5:cjc157_1976"
    INDEX 01 01:30:07
  TRACK 75 AUDIO
    TITLE "0:"
    INDEX 01 01:33:36
